<svg id="b35a9933-3b90-4873-9116-9b575ebdd88d" style="padding: 20px 0" data-name="Ebene 1" xmlns="http://www.w3.org/2000/svg" viewBox="0 0 435.14 170.54"><defs><style>.a2194a67-ee4b-4d06-b938-f352fb6c8d83,.b6982adf-55a6-418e-8333-99eb797c924a,.e40380ad-ebcc-4cef-be65-94ac463fac9b{fill:none;stroke-linecap:round;stroke-linejoin:round;}.a2194a67-ee4b-4d06-b938-f352fb6c8d83,.a338c90f-35cc-4650-be5d-4e462c9fca1a,.a440bcb8-78a6-4a72-bd32-6cbcef256e1a,.e40380ad-ebcc-4cef-be65-94ac463fac9b{stroke:#282a36;}.b6982adf-55a6-418e-8333-99eb797c924a,.e40380ad-ebcc-4cef-be65-94ac463fac9b{stroke-width:2px;}.a2194a67-ee4b-4d06-b938-f352fb6c8d83{stroke-width:6px;}.a338c90f-35cc-4650-be5d-4e462c9fca1a,.a440bcb8-78a6-4a72-bd32-6cbcef256e1a{fill:#3b064f;stroke-miterlimit:10;}.a338c90f-35cc-4650-be5d-4e462c9fca1a{fill-rule:evenodd;}.b6982adf-55a6-418e-8333-99eb797c924a{stroke:#352828;}.f179c006-3375-4c7f-b641-e0badb8b2f21{font-size:12px;fill:#282a36;font-family:Calibri;}.a320df37-2de4-49e4-aa39-34b9ed21251e{letter-spacing:-0.01em;}.ad01af37-7e59-48b1-a954-f72f3b31ebf1{letter-spacing:-0.02em;}.b6326433-a3d5-4f48-b07d-55b46bdbc290{letter-spacing:-0.01em;}.f2bb9089-7393-4ca5-bfc8-5c91a4338078{letter-spacing:-0.01em;}.ffc2438a-dd74-4a68-8dbd-fb21a4038720{letter-spacing:-0.01em;}.eb78f53b-7b3d-4c5f-99e0-0946eac6ecd4{letter-spacing:0.01em;}.bff2388b-a984-4797-8334-6b4321fb2e1a{letter-spacing:-0.01em;}.b5818c65-8076-4c45-822b-bfaf65041f92{letter-spacing:-0.02em;}.e16a1b3b-7cfc-405a-b709-1e429bf596dd{letter-spacing:0.01em;}.b7d5bc26-8830-4bb3-95f0-61ad670636bf{letter-spacing:-0.02em;}.b15a5772-119b-428b-83f6-9b7d1ca4595b{letter-spacing:-0.01em;}.b7da0d8a-3e35-4f44-b4e1-56c3732eefb2{letter-spacing:0em;}</style></defs><title>client-server-anfrage</title><rect class="e40380ad-ebcc-4cef-be65-94ac463fac9b" x="1" y="35.09" width="93.7" height="77.5" rx="4.65"/><line class="e40380ad-ebcc-4cef-be65-94ac463fac9b" x1="28.73" y1="81.07" x2="44.51" y2="81.07"/><line class="e40380ad-ebcc-4cef-be65-94ac463fac9b" x1="67.27" y1="81.07" x2="51.49" y2="81.07"/><line class="e40380ad-ebcc-4cef-be65-94ac463fac9b" x1="1.44" y1="52.77" x2="94.7" y2="52.77"/><line class="a2194a67-ee4b-4d06-b938-f352fb6c8d83" x1="35.71" y1="44.89" x2="81.13" y2="44.89"/><path class="a338c90f-35cc-4650-be5d-4e462c9fca1a" d="M43.15,126.61a2,2,0,1,1-2,2A2,2,0,0,1,43.15,126.61Z" transform="translate(-31.86 -83.91)"/><circle class="a440bcb8-78a6-4a72-bd32-6cbcef256e1a" cx="48.84" cy="128.58" r="1.97" transform="translate(-32.17 -83.79) rotate(-0.14)"/><path class="a338c90f-35cc-4650-be5d-4e462c9fca1a" d="M54.53,126.61a2,2,0,1,1-2,2A2,2,0,0,1,54.53,126.61Z" transform="translate(-31.86 -83.91)"/><polyline class="e40380ad-ebcc-4cef-be65-94ac463fac9b" points="36.62 73.18 28.73 81.07 36.62 88.96"/><polyline class="e40380ad-ebcc-4cef-be65-94ac463fac9b" points="59.38 73.18 67.27 81.07 59.38 88.96"/><rect class="e40380ad-ebcc-4cef-be65-94ac463fac9b" x="356.05" y="35.09" width="78.09" height="20.33" rx="1.22"/><path class="e40380ad-ebcc-4cef-be65-94ac463fac9b" d="M398.6,126.5a2.4,2.4,0,0,1,.94,3.36,2.63,2.63,0,0,1-3.5.89,2.39,2.39,0,0,1-.94-3.35A2.61,2.61,0,0,1,398.6,126.5Z" transform="translate(-31.86 -83.91)"/><path class="e40380ad-ebcc-4cef-be65-94ac463fac9b" d="M407.58,126.5a2.4,2.4,0,0,1,.94,3.36,2.64,2.64,0,0,1-3.51.89,2.39,2.39,0,0,1-.93-3.35A2.61,2.61,0,0,1,407.58,126.5Z" transform="translate(-31.86 -83.91)"/><path class="e40380ad-ebcc-4cef-be65-94ac463fac9b" d="M417,126.5a2.4,2.4,0,0,1,.94,3.36,2.62,2.62,0,0,1-3.5.89,2.39,2.39,0,0,1-.94-3.35A2.62,2.62,0,0,1,417,126.5Z" transform="translate(-31.86 -83.91)"/><line class="e40380ad-ebcc-4cef-be65-94ac463fac9b" x1="397.52" y1="44.51" x2="424.46" y2="44.51"/><rect class="e40380ad-ebcc-4cef-be65-94ac463fac9b" x="356.05" y="63.15" width="78.09" height="20.33" rx="1.22"/><path class="e40380ad-ebcc-4cef-be65-94ac463fac9b" d="M398.6,154.56a2.39,2.39,0,0,1,.94,3.35,2.62,2.62,0,0,1-3.5.9,2.39,2.39,0,0,1-.94-3.35A2.61,2.61,0,0,1,398.6,154.56Z" transform="translate(-31.86 -83.91)"/><path class="e40380ad-ebcc-4cef-be65-94ac463fac9b" d="M407.58,154.56a2.39,2.39,0,0,1,.94,3.35,2.63,2.63,0,0,1-3.51.9,2.4,2.4,0,0,1-.93-3.35A2.61,2.61,0,0,1,407.58,154.56Z" transform="translate(-31.86 -83.91)"/><path class="e40380ad-ebcc-4cef-be65-94ac463fac9b" d="M417,154.56a2.39,2.39,0,0,1,.94,3.35,2.61,2.61,0,0,1-3.5.9,2.39,2.39,0,0,1-.94-3.35A2.62,2.62,0,0,1,417,154.56Z" transform="translate(-31.86 -83.91)"/><line class="e40380ad-ebcc-4cef-be65-94ac463fac9b" x1="397.52" y1="72.57" x2="424.46" y2="72.57"/><rect class="e40380ad-ebcc-4cef-be65-94ac463fac9b" x="356.05" y="91.21" width="78.09" height="20.33" rx="1.22"/><path class="e40380ad-ebcc-4cef-be65-94ac463fac9b" d="M398.6,182.61a2.4,2.4,0,0,1,.94,3.36,2.62,2.62,0,0,1-3.5.9,2.39,2.39,0,0,1-.94-3.35A2.63,2.63,0,0,1,398.6,182.61Z" transform="translate(-31.86 -83.91)"/><path class="e40380ad-ebcc-4cef-be65-94ac463fac9b" d="M407.58,182.61a2.4,2.4,0,0,1,.94,3.36,2.63,2.63,0,0,1-3.51.9,2.4,2.4,0,0,1-.93-3.35A2.63,2.63,0,0,1,407.58,182.61Z" transform="translate(-31.86 -83.91)"/><path class="e40380ad-ebcc-4cef-be65-94ac463fac9b" d="M417,182.61a2.4,2.4,0,0,1,.94,3.36,2.61,2.61,0,0,1-3.5.9,2.39,2.39,0,0,1-.94-3.35A2.63,2.63,0,0,1,417,182.61Z" transform="translate(-31.86 -83.91)"/><line class="e40380ad-ebcc-4cef-be65-94ac463fac9b" x1="397.52" y1="100.63" x2="424.46" y2="100.63"/><line class="e40380ad-ebcc-4cef-be65-94ac463fac9b" x1="326.27" y1="55.07" x2="124.49" y2="55.07"/><polyline class="e40380ad-ebcc-4cef-be65-94ac463fac9b" points="318.38 47.18 326.27 55.07 318.38 62.96"/><line class="b6982adf-55a6-418e-8333-99eb797c924a" x1="123.49" y1="94.07" x2="325.27" y2="94.07"/><polyline class="e40380ad-ebcc-4cef-be65-94ac463fac9b" points="131.38 86.18 123.49 94.07 131.38 101.96"/><text class="f179c006-3375-4c7f-b641-e0badb8b2f21" transform="translate(175.89 9.79)">A<tspan class="a320df37-2de4-49e4-aa39-34b9ed21251e" x="6.94" y="0">n</tspan><tspan x="13.18" y="0">f</tspan><tspan class="ad01af37-7e59-48b1-a954-f72f3b31ebf1" x="16.84" y="0">r</tspan><tspan x="20.78" y="0">a</tspan><tspan class="b6326433-a3d5-4f48-b07d-55b46bdbc290" x="26.53" y="0">g</tspan><tspan x="32.07" y="0">e des Clie</tspan><tspan class="f2bb9089-7393-4ca5-bfc8-5c91a4338078" x="78.32" y="0">n</tspan><tspan x="84.51" y="0">ts</tspan></text><text class="f179c006-3375-4c7f-b641-e0badb8b2f21" transform="translate(188.89 28.79)"><tspan class="f2bb9089-7393-4ca5-bfc8-5c91a4338078">h</tspan><tspan x="6.19" y="0">ttp/1.1 - </tspan><tspan class="b6326433-a3d5-4f48-b07d-55b46bdbc290" x="49.04" y="0">g</tspan><tspan class="ffc2438a-dd74-4a68-8dbd-fb21a4038720" x="54.59" y="0">e</tspan><tspan x="60.49" y="0">t </tspan></text><text class="f179c006-3375-4c7f-b641-e0badb8b2f21" transform="translate(177.03 126.79)">A<tspan class="f2bb9089-7393-4ca5-bfc8-5c91a4338078" x="6.94" y="0">n</tspan><tspan x="13.14" y="0">t</tspan><tspan class="f2bb9089-7393-4ca5-bfc8-5c91a4338078" x="17.16" y="0">w</tspan><tspan x="25.62" y="0">ort des Se</tspan><tspan class="eb78f53b-7b3d-4c5f-99e0-0946eac6ecd4" x="74.03" y="0">r</tspan><tspan class="bff2388b-a984-4797-8334-6b4321fb2e1a" x="78.33" y="0">v</tspan><tspan x="83.63" y="0">e</tspan><tspan class="b5818c65-8076-4c45-822b-bfaf65041f92" x="89.6" y="0">r</tspan><tspan x="93.58" y="0">s</tspan></text><text class="f179c006-3375-4c7f-b641-e0badb8b2f21" transform="translate(195.76 145.79)"><tspan class="f2bb9089-7393-4ca5-bfc8-5c91a4338078">h</tspan><tspan x="6.19" y="0">ttp/1.1 - ok</tspan></text><text class="f179c006-3375-4c7f-b641-e0badb8b2f21" transform="translate(156.2 166.79)">HTM<tspan class="e16a1b3b-7cfc-405a-b709-1e429bf596dd" x="23.58" y="0">L</tspan><tspan x="28.73" y="0">, CSS, J</tspan><tspan class="b7d5bc26-8830-4bb3-95f0-61ad670636bf" x="61.39" y="0">a</tspan><tspan class="b15a5772-119b-428b-83f6-9b7d1ca4595b" x="66.94" y="0">v</tspan><tspan x="72.19" y="0">aScri</tspan><tspan class="b7da0d8a-3e35-4f44-b4e1-56c3732eefb2" x="95.46" y="0">p</tspan><tspan x="101.71" y="0">t, Bilder</tspan></text></svg>