<?xml version="1.0" encoding="UTF-8" standalone="no"?><!DOCTYPE svg PUBLIC "-//W3C//DTD SVG 1.1//EN" "http://www.w3.org/Graphics/SVG/1.1/DTD/svg11.dtd"><svg width="100%" height="100%" viewBox="0 0 1114 848" version="1.1" xmlns="http://www.w3.org/2000/svg" xmlns:xlink="http://www.w3.org/1999/xlink" xml:space="preserve" xmlns:serif="http://www.serif.com/" style="fill-rule:evenodd;clip-rule:evenodd;stroke-linecap:round;stroke-linejoin:round;stroke-miterlimit:1.5;"><path d="M588.356,18.856c0,-9.658 -7.841,-17.5 -17.5,-17.5l-186,0c-9.658,0 -17.5,7.842 -17.5,17.5l0,35c0,9.659 7.842,17.5 17.5,17.5l186,0c9.659,0 17.5,-7.841 17.5,-17.5l0,-35Z" style="fill:#f4ebeb;stroke:#000;stroke-width:2.71px;"/><path d="M588.356,135.856c0,-9.658 -7.841,-17.5 -17.5,-17.5l-186,0c-9.658,0 -17.5,7.842 -17.5,17.5l0,35c0,9.659 7.842,17.5 17.5,17.5l186,0c9.659,0 17.5,-7.841 17.5,-17.5l0,-35Z" style="fill:#f1faf5;stroke:#000;stroke-width:2.71px;"/><path d="M477.856,74.356l0,42" style="fill:none;stroke:#000;stroke-width:2.71px;"/><path d="M477.856,190.356l0,42" style="fill:none;stroke:#000;stroke-width:2.71px;"/><path d="M112.856,234.356l0,42" style="fill:none;stroke:#000;stroke-width:2.71px;"/><path d="M842.856,234.356l0,42" style="fill:none;stroke:#000;stroke-width:2.71px;"/><path d="M111.856,350.356l0,42" style="fill:none;stroke:#000;stroke-width:2.71px;"/><path d="M841.356,347.356l0,42" style="fill:none;stroke:#000;stroke-width:2.71px;"/><path d="M569.856,582.356l-42,0" style="fill:none;stroke:#000;stroke-width:2.71px;"/><path d="M569.856,695.356l-42,0" style="fill:none;stroke:#000;stroke-width:2.71px;"/><path d="M567.856,811.356l-42,0" style="fill:none;stroke:#000;stroke-width:2.71px;"/><path d="M682.856,391.356l0,42" style="fill:none;stroke:#000;stroke-width:2.71px;"/><path d="M1001.39,391.356l0,42" style="fill:none;stroke:#000;stroke-width:2.71px;"/><path d="M111.856,464.356l0,42" style="fill:none;stroke:#000;stroke-width:2.71px;"/><path d="M682.856,504.356l0,42" style="fill:none;stroke:#000;stroke-width:2.71px;"/><path d="M682.856,617.356l0,42" style="fill:none;stroke:#000;stroke-width:2.71px;"/><path d="M680.856,733.356l0,42" style="fill:none;stroke:#000;stroke-width:2.71px;"/><path d="M1001.39,504.356l0,42" style="fill:none;stroke:#000;stroke-width:2.71px;"/><path d="M840.356,234.356l-725,0" style="fill:none;stroke:#000;stroke-width:2.71px;"/><path d="M1002.36,391.356l-320,0" style="fill:none;stroke:#000;stroke-width:2.71px;"/><text x="402.912px" y="45.897px" style="font-family:'Calibri', sans-serif;font-size:36px;">documen<tspan x="540.197px " y="45.897px ">t</tspan></text><text x="426.089px" y="165.45px" style="font-family:'Calibri', sans-serif;font-size:36px;">&lt;h<tspan x="462.599px 474.657px " y="165.45px 165.45px ">tm</tspan>l&gt;</text><path d="M222.356,296.856c0,-9.658 -7.841,-17.5 -17.5,-17.5l-186,0c-9.658,0 -17.5,7.842 -17.5,17.5l0,35c0,9.659 7.842,17.5 17.5,17.5l186,0c9.659,0 17.5,-7.841 17.5,-17.5l0,-35Z" style="fill:#f1faf5;stroke:#000;stroke-width:2.71px;"/><path d="M953.356,294.856c0,-9.658 -7.841,-17.5 -17.5,-17.5l-186,0c-9.658,0 -17.5,7.842 -17.5,17.5l0,35c0,9.659 7.842,17.5 17.5,17.5l186,0c9.659,0 17.5,-7.841 17.5,-17.5l0,-35Z" style="fill:#f1faf5;stroke:#000;stroke-width:2.71px;"/><path d="M222.356,412.856c0,-9.658 -7.841,-17.5 -17.5,-17.5l-186,0c-9.658,0 -17.5,7.842 -17.5,17.5l0,35c0,9.659 7.842,17.5 17.5,17.5l186,0c9.659,0 17.5,-7.841 17.5,-17.5l0,-35Z" style="fill:#f1faf5;stroke:#000;stroke-width:2.71px;"/><path d="M793.356,450.856c0,-9.658 -7.841,-17.5 -17.5,-17.5l-186,0c-9.658,0 -17.5,7.842 -17.5,17.5l0,35c0,9.659 7.842,17.5 17.5,17.5l186,0c9.659,0 17.5,-7.841 17.5,-17.5l0,-35Z" style="fill:#f1faf5;stroke:#000;stroke-width:2.71px;"/><path d="M1111.89,450.856c0,-9.658 -7.841,-17.5 -17.5,-17.5l-186,0c-9.658,0 -17.5,7.842 -17.5,17.5l0,35c0,9.659 7.842,17.5 17.5,17.5l186,0c9.659,0 17.5,-7.841 17.5,-17.5l0,-35Z" style="fill:#f1faf5;stroke:#000;stroke-width:2.71px;"/><path d="M527.356,564.856c0,-9.658 -7.841,-17.5 -17.5,-17.5l-186,0c-9.658,0 -17.5,7.842 -17.5,17.5l0,35c0,9.659 7.842,17.5 17.5,17.5l186,0c9.659,0 17.5,-7.841 17.5,-17.5l0,-35Z" style="fill:#eaf5f9;stroke:#000;stroke-width:2.71px;"/><path d="M527.356,677.856c0,-9.658 -7.841,-17.5 -17.5,-17.5l-186,0c-9.658,0 -17.5,7.842 -17.5,17.5l0,35c0,9.659 7.842,17.5 17.5,17.5l186,0c9.659,0 17.5,-7.841 17.5,-17.5l0,-35Z" style="fill:#eaf5f9;stroke:#000;stroke-width:2.71px;"/><path d="M525.356,793.856c0,-9.658 -7.841,-17.5 -17.5,-17.5l-186,0c-9.658,0 -17.5,7.842 -17.5,17.5l0,35c0,9.659 7.842,17.5 17.5,17.5l186,0c9.659,0 17.5,-7.841 17.5,-17.5l0,-35Z" style="fill:#eaf5f9;stroke:#000;stroke-width:2.71px;"/><path d="M222.356,523.856c0,-9.658 -7.841,-17.5 -17.5,-17.5l-186,0c-9.658,0 -17.5,7.842 -17.5,17.5l0,35c0,9.659 7.842,17.5 17.5,17.5l186,0c9.659,0 17.5,-7.841 17.5,-17.5l0,-35Z" style="fill:#fbfae5;stroke:#000;stroke-width:2.71px;"/><path d="M793.356,564.856c0,-9.658 -7.841,-17.5 -17.5,-17.5l-186,0c-9.658,0 -17.5,7.842 -17.5,17.5l0,35c0,9.659 7.842,17.5 17.5,17.5l186,0c9.659,0 17.5,-7.841 17.5,-17.5l0,-35Z" style="fill:#f1faf5;stroke:#000;stroke-width:2.71px;"/><path d="M793.356,677.856c0,-9.658 -7.841,-17.5 -17.5,-17.5l-186,0c-9.658,0 -17.5,7.842 -17.5,17.5l0,35c0,9.659 7.842,17.5 17.5,17.5l186,0c9.659,0 17.5,-7.841 17.5,-17.5l0,-35Z" style="fill:#f1faf5;stroke:#000;stroke-width:2.71px;"/><path d="M791.356,793.856c0,-9.658 -7.841,-17.5 -17.5,-17.5l-186,0c-9.658,0 -17.5,7.842 -17.5,17.5l0,35c0,9.659 7.842,17.5 17.5,17.5l186,0c9.659,0 17.5,-7.841 17.5,-17.5l0,-35Z" style="fill:#f1faf5;stroke:#000;stroke-width:2.71px;"/><path d="M1111.89,564.856c0,-9.658 -7.841,-17.5 -17.5,-17.5l-186,0c-9.658,0 -17.5,7.842 -17.5,17.5l0,35c0,9.659 7.842,17.5 17.5,17.5l186,0c9.659,0 17.5,-7.841 17.5,-17.5l0,-35Z" style="fill:#fbfae5;stroke:#000;stroke-width:2.71px;"/><text x="57.426px" y="323.897px" style="font-family:'Calibri', sans-serif;font-size:36px;">&lt;head&gt;</text><text x="788.364px" y="321.897px" style="font-family:'Calibri', sans-serif;font-size:36px;">&lt;body&gt;</text><path d="M99.156,423.181c0.352,0 0.592,0.079 0.721,0.237c0.129,0.158 0.193,0.39 0.193,0.694l0,15.346c0,0.094 -0.023,0.173 -0.07,0.237c-0.047,0.065 -0.126,0.12 -0.237,0.167c-0.112,0.047 -0.261,0.082 -0.449,0.106c-0.187,0.023 -0.416,0.035 -0.685,0.035c-0.293,0 -0.533,-0.012 -0.721,-0.035c-0.187,-0.024 -0.337,-0.059 -0.448,-0.106c-0.111,-0.047 -0.19,-0.102 -0.237,-0.167c-0.047,-0.064 -0.071,-0.143 -0.071,-0.237l0,-13.869l-8.173,0l0,8.824c0,1.09 0.161,1.913 0.483,2.47c0.322,0.556 0.899,0.835 1.731,0.835c0.27,0 0.51,-0.027 0.721,-0.079c0.211,-0.053 0.399,-0.109 0.563,-0.167c0.164,-0.059 0.304,-0.115 0.421,-0.167c0.118,-0.053 0.223,-0.079 0.317,-0.079c0.058,0 0.114,0.014 0.167,0.044c0.053,0.029 0.094,0.085 0.123,0.167c0.029,0.082 0.056,0.193 0.079,0.334c0.023,0.14 0.035,0.316 0.035,0.527c0,0.34 -0.023,0.606 -0.07,0.8c-0.047,0.193 -0.117,0.34 -0.211,0.439c-0.094,0.1 -0.234,0.191 -0.422,0.273c-0.187,0.082 -0.401,0.149 -0.642,0.202c-0.24,0.052 -0.495,0.096 -0.764,0.132c-0.27,0.035 -0.539,0.052 -0.809,0.052c-0.82,0 -1.523,-0.108 -2.109,-0.325c-0.586,-0.217 -1.067,-0.545 -1.442,-0.984c-0.375,-0.44 -0.647,-0.996 -0.817,-1.67c-0.17,-0.674 -0.255,-1.468 -0.255,-2.382l0,-9.246l-2.215,0c-0.175,0 -0.316,-0.094 -0.422,-0.281c-0.105,-0.188 -0.158,-0.493 -0.158,-0.914c0,-0.223 0.015,-0.411 0.044,-0.563c0.029,-0.152 0.068,-0.278 0.114,-0.378c0.047,-0.099 0.109,-0.17 0.185,-0.211c0.076,-0.041 0.161,-0.061 0.255,-0.061l2.197,0l0,-3.762c0,-0.082 0.021,-0.158 0.062,-0.229c0.041,-0.07 0.117,-0.131 0.228,-0.184c0.112,-0.053 0.261,-0.091 0.448,-0.114c0.188,-0.024 0.422,-0.036 0.704,-0.036c0.293,0 0.533,0.012 0.72,0.036c0.188,0.023 0.334,0.061 0.44,0.114c0.105,0.053 0.181,0.114 0.228,0.184c0.047,0.071 0.071,0.147 0.071,0.229l0,3.762l10.177,0Zm1.248,-4.887c0,0.68 -0.129,1.143 -0.386,1.389c-0.258,0.246 -0.733,0.369 -1.424,0.369c-0.68,0 -1.146,-0.12 -1.398,-0.361c-0.252,-0.24 -0.378,-0.694 -0.378,-1.362c0,-0.68 0.129,-1.142 0.387,-1.389c0.258,-0.246 0.733,-0.369 1.424,-0.369c0.68,0 1.145,0.12 1.397,0.361c0.252,0.24 0.378,0.694 0.378,1.362Z"/><text x="64.773px" y="439.897px" style="font-family:'Calibri', sans-serif;font-size:36px;">&lt;<tspan x="102.76px " y="439.897px ">t</tspan>le&gt;</text><text x="639.008px" y="477.473px" style="font-family:'Calibri', sans-serif;font-size:36px;">&lt;na<tspan x="692.498px 708.758px " y="477.473px 477.473px ">v&gt;</tspan></text><text x="964.868px" y="477.473px" style="font-family:'Calibri', sans-serif;font-size:36px;">&lt;h1&gt;</text><text x="385.541px" y="594.494px" style="font-family:'Calibri', sans-serif;font-size:36px;">hr<tspan x="416.531px 434.127px " y="594.494px 594.494px ">ef</tspan></text><text x="385.541px" y="707.494px" style="font-family:'Calibri', sans-serif;font-size:36px;">hr<tspan x="416.531px 434.127px " y="707.494px 707.494px ">ef</tspan></text><text x="383.541px" y="823.494px" style="font-family:'Calibri', sans-serif;font-size:36px;">hr<tspan x="414.531px 432.127px " y="823.494px 823.494px ">ef</tspan></text><text x="23.745px" y="553.468px" style="font-family:'Calibri', sans-serif;font-size:36px;">&quot;Mein Tit<tspan x="159.659px 177.571px " y="553.468px 553.468px ">el</tspan>&quot;</text><text x="656.296px" y="591.473px" style="font-family:'Calibri', sans-serif;font-size:36px;">&lt;a&gt;</text><text x="656.296px" y="704.473px" style="font-family:'Calibri', sans-serif;font-size:36px;">&lt;a&gt;</text><text x="654.296px" y="820.473px" style="font-family:'Calibri', sans-serif;font-size:36px;">&lt;a&gt;</text><path d="M1067.26,577.164l0,13.87c0,0.093 -0.024,0.172 -0.071,0.237c-0.047,0.064 -0.126,0.12 -0.237,0.167c-0.111,0.047 -0.261,0.082 -0.448,0.105c-0.188,0.024 -0.422,0.036 -0.703,0.036c-0.282,0 -0.516,-0.012 -0.704,-0.036c-0.187,-0.023 -0.337,-0.058 -0.448,-0.105c-0.111,-0.047 -0.19,-0.103 -0.237,-0.167c-0.047,-0.065 -0.07,-0.144 -0.07,-0.237l0,-13.87l-2.233,0c-0.187,0 -0.328,-0.093 -0.422,-0.281c-0.094,-0.187 -0.14,-0.492 -0.14,-0.914c0,-0.223 0.011,-0.41 0.035,-0.562c0.023,-0.153 0.058,-0.279 0.105,-0.378c0.047,-0.1 0.106,-0.17 0.176,-0.211c0.07,-0.041 0.152,-0.062 0.246,-0.062l2.233,0l0,-1.635c0,-1.101 0.102,-2.047 0.307,-2.838c0.205,-0.791 0.516,-1.439 0.932,-1.943c0.416,-0.504 0.943,-0.876 1.582,-1.116c0.639,-0.24 1.391,-0.36 2.259,-0.36c0.433,0 0.855,0.044 1.265,0.131c0.41,0.088 0.703,0.17 0.879,0.247c0.176,0.076 0.299,0.149 0.369,0.219c0.071,0.071 0.126,0.161 0.167,0.273c0.041,0.111 0.071,0.246 0.088,0.404c0.018,0.158 0.027,0.349 0.027,0.571c0,0.223 -0.009,0.402 -0.027,0.536c-0.017,0.135 -0.044,0.244 -0.079,0.326c-0.035,0.082 -0.076,0.137 -0.123,0.167c-0.047,0.029 -0.1,0.044 -0.158,0.044c-0.094,0 -0.199,-0.027 -0.317,-0.079c-0.117,-0.053 -0.263,-0.112 -0.439,-0.176c-0.176,-0.065 -0.384,-0.123 -0.624,-0.176c-0.24,-0.053 -0.519,-0.079 -0.835,-0.079c-0.434,0 -0.8,0.07 -1.099,0.211c-0.298,0.14 -0.542,0.36 -0.729,0.659c-0.188,0.299 -0.325,0.686 -0.413,1.16c-0.088,0.475 -0.132,1.052 -0.132,1.732l0,1.722l7.137,0l0,-3.761c0,-0.083 0.023,-0.159 0.07,-0.229c0.047,-0.07 0.123,-0.132 0.228,-0.185c0.106,-0.052 0.252,-0.09 0.44,-0.114c0.187,-0.023 0.428,-0.035 0.721,-0.035c0.281,0 0.515,0.012 0.703,0.035c0.187,0.024 0.334,0.062 0.439,0.114c0.106,0.053 0.182,0.115 0.229,0.185c0.047,0.07 0.07,0.146 0.07,0.229l0,3.761l4.043,0c0.094,0 0.179,0.021 0.255,0.062c0.076,0.041 0.138,0.111 0.184,0.211c0.047,0.099 0.085,0.225 0.115,0.378c0.029,0.152 0.044,0.339 0.044,0.562c0,0.422 -0.053,0.727 -0.159,0.914c-0.105,0.188 -0.246,0.281 -0.421,0.281l-4.061,0l0,8.825c0,1.09 0.158,1.913 0.475,2.469c0.316,0.557 0.896,0.835 1.74,0.835c0.258,0 0.495,-0.026 0.712,-0.079c0.217,-0.052 0.407,-0.108 0.571,-0.167c0.164,-0.058 0.308,-0.114 0.431,-0.167c0.123,-0.052 0.225,-0.079 0.307,-0.079c0.071,0 0.129,0.015 0.176,0.044c0.047,0.029 0.085,0.085 0.114,0.167c0.03,0.082 0.056,0.193 0.08,0.334c0.023,0.141 0.035,0.316 0.035,0.527c0,0.34 -0.027,0.61 -0.079,0.809c-0.053,0.199 -0.126,0.346 -0.22,0.439c-0.094,0.094 -0.229,0.182 -0.404,0.264c-0.176,0.082 -0.384,0.15 -0.624,0.202c-0.241,0.053 -0.499,0.097 -0.774,0.132c-0.275,0.035 -0.542,0.053 -0.8,0.053c-0.832,0 -1.541,-0.109 -2.127,-0.325c-0.586,-0.217 -1.066,-0.545 -1.441,-0.985c-0.375,-0.439 -0.648,-0.996 -0.817,-1.67c-0.17,-0.673 -0.255,-1.467 -0.255,-2.381l0,-9.247l-7.119,0Z"/><text x="905.575px" y="591.473px" style="font-family:'Calibri', sans-serif;font-size:36px;">&quot;Über<tspan x="991.866px 1005.95px " y="591.473px 591.473px ">sc</tspan>hri<tspan x="1083.06px " y="591.473px ">&quot;</tspan></text></svg>