<?xml version="1.0" encoding="UTF-8" standalone="no"?><!DOCTYPE svg PUBLIC "-//W3C//DTD SVG 1.1//EN" "http://www.w3.org/Graphics/SVG/1.1/DTD/svg11.dtd"><svg width="100%" height="100%" viewBox="0 0 4826 2810" version="1.1" xmlns="http://www.w3.org/2000/svg" xmlns:xlink="http://www.w3.org/1999/xlink" xml:space="preserve" xmlns:serif="http://www.serif.com/" style="fill-rule:evenodd;clip-rule:evenodd;stroke-linecap:round;stroke-linejoin:round;stroke-miterlimit:1.5;"><path d="M926.485,260.238c0,-40.244 -32.673,-72.916 -72.916,-72.916l-775,0c-40.244,0 -72.917,32.672 -72.917,72.916l0,145.834c0,40.243 32.673,72.916 72.917,72.916l775,0c40.243,0 72.916,-32.673 72.916,-72.916l0,-145.834Z" style="fill:none;stroke:#000;stroke-width:11.3px;"/><path d="M2522.32,847.738c0,-40.244 -32.673,-72.916 -72.917,-72.916l-775,0c-40.244,0 -72.917,32.672 -72.917,72.916l0,145.834c0,40.243 32.673,72.916 72.917,72.916l775,0c40.244,0 72.917,-32.673 72.917,-72.916l0,-145.834Z" style="fill:none;stroke:#000;stroke-width:11.3px;"/><path d="M4076.49,1435.24c0,-40.244 -32.673,-72.916 -72.916,-72.916l-775,0c-40.244,0 -72.917,32.672 -72.917,72.916l0,145.834c0,40.243 32.673,72.916 72.917,72.916l775,0c40.243,0 72.916,-32.673 72.916,-72.916l0,-145.834Z" style="fill:none;stroke:#000;stroke-width:11.3px;"/><path d="M4068.15,2585.24c0,-40.244 -32.673,-72.916 -72.917,-72.916l-775,0c-40.243,0 -72.916,32.672 -72.916,72.916l0,145.834c0,40.243 32.673,72.916 72.916,72.916l775,0c40.244,0 72.917,-32.673 72.917,-72.916l0,-145.834Z" style="fill:none;stroke:#000;stroke-width:11.3px;"/><text x="239.018px" y="372.909px" style="font-family:'Calibri', sans-serif;font-size:150px;">&lt;body&gt;</text><text x="1879.2px" y="958.641px" style="font-family:'Calibri', sans-serif;font-size:150px;">&lt;na<tspan x="2102.07px 2169.82px " y="958.641px 958.641px ">v&gt;</tspan></text><text x="3505.4px" y="1546.14px" style="font-family:'Calibri', sans-serif;font-size:150px;">&lt;a&gt;</text><text x="3497.07px" y="2696.14px" style="font-family:'Calibri', sans-serif;font-size:150px;">&lt;a&gt;</text><g><path d="M478.569,910.238l839.583,0l0,-77.083l77.083,77.083l-77.083,77.084l0,-77.084l-839.583,0Z" style="fill:none;stroke:#000;stroke-width:11.25px;"/><path d="M478.569,603.988l0,300" style="fill:none;stroke:#000;stroke-width:11.25px;"/></g><g><path d="M2070.24,1501.9l839.584,0l0,-77.083l77.083,77.083l-77.083,77.083l0,-77.083l-839.584,0Z" style="fill:none;stroke:#000;stroke-width:11.25px;"/><path d="M2070.24,1195.65l0,300" style="fill:none;stroke:#000;stroke-width:11.25px;"/></g><g><path d="M2070.24,2660.24l839.584,0l0,-77.083l77.083,77.083l-77.083,77.084l0,-77.084l-839.584,0Z" style="fill:none;stroke:#000;stroke-width:11.25px;"/><path d="M2070.24,2353.99l0,300" style="fill:none;stroke:#000;stroke-width:11.25px;"/></g><g><path d="M2057.74,322.738l-839.583,0l0,77.084l-77.083,-77.084l77.083,-77.083l0,77.083l839.583,0Z" style="fill:none;stroke:#000;stroke-width:11.25px;"/><path d="M2057.74,628.988l0,-300" style="fill:none;stroke:#000;stroke-width:11.25px;"/></g><path d="M3495.24,1806.07l0,456.25l77.084,0l-77.084,77.083l-77.083,-77.083l77.083,0l0,-456.25Z" style="fill:none;stroke:#000;stroke-width:11.25px;"/><path d="M3749.4,2339.41l0,-456.25l-77.083,0l77.083,-77.083l77.083,77.083l-77.083,0l0,456.25Z" style="fill:none;stroke:#000;stroke-width:11.25px;"/><text x="554.687px" y="1056.99px" style="font-family:'Calibri', sans-serif;font-size:100px;">ﬁr<tspan x="640.771px 678.759px 712.255px " y="1056.99px 1056.99px 1056.99px ">stC</tspan>hild</text><text x="2138.02px" y="2423.66px" style="font-family:'Calibri', sans-serif;font-size:100px;">las<tspan x="2246.86px 2280.35px " y="2423.66px 2423.66px ">tC</tspan>hild</text><text x="3877.6px" y="2016.36px" style="font-family:'Calibri', sans-serif;font-size:100px;">pr<tspan x="3963.69px 4012.95px 4058.12px " y="2016.36px 2016.36px 2016.36px ">evi</tspan>ousSibling</text><text x="3877.6px" y="2136.16px" style="font-family:'Calibri', sans-serif;font-size:100px;">pr<tspan x="3963.69px 4012.95px 4058.12px " y="2136.16px 2136.16px 2136.16px ">evi</tspan>ousElemen<tspan x="4528.24px 4561.73px " y="2136.16px 2136.16px ">tS</tspan>ibling</text><text x="2925.52px" y="2015.32px" style="font-family:'Calibri', sans-serif;font-size:100px;">ne<tspan x="3026.3px 3069.91px 3103.4px " y="2015.32px 2015.32px 2015.32px ">xtS</tspan>ibling</text><text x="554.687px" y="1202.82px" style="font-family:'Calibri', sans-serif;font-size:100px;">ﬁr<tspan x="640.771px 678.759px 712.255px " y="1202.82px 1202.82px 1202.82px ">stE</tspan>lemen<tspan x="1015.04px 1048.54px " y="1202.82px 1202.82px ">tC</tspan>hild</text><text x="2138.02px" y="2565.32px" style="font-family:'Calibri', sans-serif;font-size:100px;">las<tspan x="2246.86px 2280.35px " y="2565.32px 2565.32px ">tE</tspan>lemen<tspan x="2583.14px 2616.63px " y="2565.32px 2565.32px ">tC</tspan>hild</text><text x="1445.5px" y="67.822px" style="font-family:'Calibri', sans-serif;font-size:100px;">par<tspan x="1579.48px 1629.24px 1680.85px 1714.35px " y="67.822px 67.822px 67.822px 67.822px ">entN</tspan>ode</text><text x="1469.14px" y="1864.41px" style="font-family:'Calibri', sans-serif;font-size:100px;">childNodes</text><text x="1595.17px" y="2010.24px" style="font-family:'Calibri', sans-serif;font-size:100px;">childr<tspan x="1821.97px 1871.73px " y="2010.24px 2010.24px ">en</tspan></text><text x="1342.19px" y="220.322px" style="font-family:'Calibri', sans-serif;font-size:100px;">par<tspan x="1476.17px 1525.93px 1577.54px 1611.04px " y="220.322px 220.322px 220.322px 220.322px ">entE</tspan>lemen<tspan x="1913.82px " y="220.322px ">t</tspan></text><path d="M2070.24,1512.32l0,895.833" style="fill:none;stroke:#000;stroke-width:11.25px;"/><text x="2146.35px" y="1273.66px" style="font-family:'Calibri', sans-serif;font-size:100px;">ﬁr<tspan x="2232.44px 2270.43px 2303.92px " y="1273.66px 1273.66px 1273.66px ">stC</tspan>hild</text><text x="2146.35px" y="1402.82px" style="font-family:'Calibri', sans-serif;font-size:100px;">ﬁr<tspan x="2232.44px 2270.43px 2303.92px " y="1402.82px 1402.82px 1402.82px ">stE</tspan>lemen<tspan x="2606.7px 2640.2px " y="1402.82px 1402.82px ">tC</tspan>hild</text><text x="2588.02px" y="2136.16px" style="font-family:'Calibri', sans-serif;font-size:100px;">ne<tspan x="2688.8px 2732.41px 2765.9px " y="2136.16px 2136.16px 2136.16px ">xtE</tspan>lemen<tspan x="3068.68px 3102.18px " y="2136.16px 2136.16px ">tS</tspan>ibling</text></svg>